# xmcd CD database file
#
# Track frame offsets:
#	150
#	19208
#	37043
#	57665
#	79200
#	98038
#	122393
#	144903
#	171718
#	195685
#	219565
#	240348
#	264088
#	285045
#
# Disc length: 4038 seconds
#
# Revision: 1
# Processed by: cddbd v1.5.1PL0 Copyright (c) Steve Scherf et al.
# Submitted via: CDex 1.51
#
DISCID=be0fc40e
DTITLE=アンルイス - WOMANISM ?
DYEAR=1900
DGENRE=ポップ
TTITLE0=Finish！
TTITLE1=ピンクダイヤモンド
TTITLE2=立ちっぱなしのBAD BOY
TTITLE3=KATANA
TTITLE4=欲望
TTITLE5=WOMAN
TTITLE6=Triangle Blue
TTITLE7=FOUR SEASONS
TTITLE8=美人薄命
TTITLE9=六本木心中
TTITLE10=あゝ無情
TTITLE11=天使よ故郷を見よ
TTITLE12=Honey Dripper
TTITLE13=グッド・バイ・マイ・ラブ’91
EXTD=
EXTT0=
EXTT1=
EXTT2=
EXTT3=
EXTT4=
EXTT5=
EXTT6=
EXTT7=
EXTT8=
EXTT9=
EXTT10=
EXTT11=
EXTT12=
EXTT13=
PLAYORDER=
